<svg xmlns="http://www.w3.org/2000/svg" width="30.585" height="41.867" viewBox="0 0 30.585 41.867"><g transform="translate(-144 -2065)"><path d="M131.941,215.953h-2.32l-.006-14.353a2.407,2.407,0,0,1,2.406-2.408l4.1,0,.005,12.574A4.185,4.185,0,0,1,131.941,215.953Z" transform="translate(14.385 1865.813)" fill="#fff"/><path d="M136.147,267.721l-4.1,0a2.407,2.407,0,0,1-2.408-2.406l-.009-19.951h2.32a4.184,4.184,0,0,1,4.186,4.183Z" transform="translate(14.375 1839.145)" fill="#fff"/><path d="M158.979,215.941l-3.38,0a4.185,4.185,0,0,1-4.187-4.183l-.005-12.575,7.564,0c5.207,0,9.469,3.455,9.471,8.662v.393C168.444,213.443,164.185,215.938,158.979,215.941Z" transform="translate(1.799 1865.819)" fill="#fff"/><path d="M161.627,267.7l-10.187,0-.008-18.173a4.185,4.185,0,0,1,4.183-4.187l6,0A11.211,11.211,0,0,1,172.8,256.521h0A11.211,11.211,0,0,1,161.627,267.7Z" transform="translate(1.784 1839.156)" fill="#fff"/></g></svg>